<?xml version="1.0" encoding="utf-8"?><svg xmlns="http://www.w3.org/2000/svg" xmlns:xlink="http://www.w3.org/1999/xlink" width="1362" height="647" preserveAspectRatio="xMidYMid" viewBox="0 0 1362 647" style="z-index:1;margin-right:-2px;display:block;background-repeat-y:initial;background-repeat-x:initial;background-color:rgb(255, 255, 255);animation-play-state:paused" ><g transform="translate(681,323.5) scale(1,1) translate(-681,-323.5)" style="transform:matrix(1, 0, 0, 1, 0, 0);animation-play-state:paused" ><linearGradient id="lg-0.19797013453561707" x1="0" x2="1" y1="0" y2="0" style="animation-play-state:paused" ><stop stop-color="#ff00ff" offset="0" style="animation-play-state:paused" ></stop>

  
<stop stop-color="#00ffff" offset="1" style="animation-play-state:paused" ></stop></linearGradient>
<path d="M 0 0 L 0 571.454 Q 340.5 272.166 681 237.193 T 1362 13.0477 L 1362 0 Z" fill="url(#lg-0.19797013453561707)" opacity="0.4" style="opacity:0.4;animation-play-state:paused" ></path>
<path d="M 0 0 L 0 575.724 Q 340.5 254.001 681 229.742 T 1362 -82.0529 L 1362 0 Z" fill="url(#lg-0.19797013453561707)" opacity="0.4" style="opacity:0.4;animation-play-state:paused" ></path>
<path d="M 0 0 L 0 585.027 Q 340.5 300.623 681 276.974 T 1362 -19.7405 L 1362 0 Z" fill="url(#lg-0.19797013453561707)" opacity="0.4" style="opacity:0.4;animation-play-state:paused" ></path>
<path d="M 0 0 L 0 552.46 Q 340.5 275.524 681 247.771 T 1362 -91.4152 L 1362 0 Z" fill="url(#lg-0.19797013453561707)" opacity="0.4" style="opacity:0.4;animation-play-state:paused" ></path>
<path d="M 0 0 L 0 585.226 Q 340.5 239.678 681 218.144 T 1362 -53.6725 L 1362 0 Z" fill="url(#lg-0.19797013453561707)" opacity="0.4" style="opacity:0.4;animation-play-state:paused" ></path>
<path d="M 0 0 L 0 582.619 Q 340.5 276.918 681 245.1 T 1362 -143.968 L 1362 0 Z" fill="url(#lg-0.19797013453561707)" opacity="0.4" style="opacity:0.4;animation-play-state:paused" ></path>
<path d="M 0 0 L 0 589.01 Q 340.5 300.806 681 265.211 T 1362 7.18766 L 1362 0 Z" fill="url(#lg-0.19797013453561707)" opacity="0.4" style="opacity:0.4;animation-play-state:paused" ></path>
<path d="M 0 0 L 0 529.9 Q 340.5 322.133 681 296.063 T 1362 -61.004 L 1362 0 Z" fill="url(#lg-0.19797013453561707)" opacity="0.4" style="opacity:0.4;animation-play-state:paused" ></path>
<path d="M 0 0 L 0 567.551 Q 340.5 245.983 681 228.941 T 1362 -122.344 L 1362 0 Z" fill="url(#lg-0.19797013453561707)" opacity="0.4" style="opacity:0.4;animation-play-state:paused" ></path></g></svg>