<svg id="visual" viewBox="0 0 900 900" width="auto" height="auto" xmlns="http://www.w3.org/2000/svg" xmlns:xlink="http://www.w3.org/1999/xlink" version="1.1"><rect x="0" y="0" width="900" height="600" fill="#FFFFFF"></rect><path d="M0 200L21.5 189.7C43 179.3 86 158.7 128.8 150.7C171.7 142.7 214.3 147.3 257.2 158.5C300 169.7 343 187.3 385.8 197.8C428.7 208.3 471.3 211.7 514.2 193.5C557 175.3 600 135.7 642.8 124.2C685.7 112.7 728.3 129.3 771.2 138.2C814 147 857 148 878.5 148.5L900 149L900 0L878.5 0C857 0 814 0 771.2 0C728.3 0 685.7 0 642.8 0C600 0 557 0 514.2 0C471.3 0 428.7 0 385.8 0C343 0 300 0 257.2 0C214.3 0 171.7 0 128.8 0C86 0 43 0 21.5 0L0 0Z" fill="#286a9c" stroke-linecap="round" stroke-linejoin="miter"></path></svg>